<svg width="191" height="192" viewBox="0 0 191 192" fill="none" xmlns="http://www.w3.org/2000/svg">
<g clip-path="url(#clip0_265_36)">
<rect x="0.510925" y="0.857422" width="190.335" height="190.335" rx="95.1677" fill="#F4F9F8"/>
<g opacity="0.7">
<path d="M37.3067 78.2949C37.3067 68.4044 45.3245 60.3865 55.215 60.3865H138.155C148.046 60.3865 156.064 68.4044 156.064 78.2949V292.555C156.064 302.446 148.046 310.463 138.155 310.463H55.215C45.3245 310.463 37.3067 302.446 37.3067 292.555V78.2949Z" fill="black"/>
<path d="M36.9822 78.7691C36.9822 68.4949 45.311 60.166 55.5852 60.166H137.785C148.059 60.166 156.388 68.4949 156.388 78.7691V292.081C156.388 302.355 148.059 310.684 137.785 310.684H55.5853C45.311 310.684 36.9822 302.355 36.9822 292.081V78.7691Z" fill="black" fill-opacity="0.01"/>
<path d="M37.3067 79.3434C37.3067 68.8738 45.6356 60.3865 55.9098 60.3865H137.461C147.735 60.3865 156.064 68.8738 156.064 79.3434V291.506C156.064 301.976 147.735 310.463 137.461 310.463H55.9098C45.6356 310.463 37.3067 301.976 37.3067 291.506V79.3434Z" fill="black"/>
<path d="M41.218 79.4246C41.218 71.3506 47.7632 64.8054 55.8372 64.8054H137.921C145.995 64.8054 152.54 71.3506 152.54 79.4246V291.526C152.54 299.6 145.995 306.146 137.921 306.146H55.8372C47.7632 306.146 41.218 299.6 41.218 291.526V79.4246Z" fill="white"/>
<path d="M41.218 79.2429C41.218 71.2693 47.6819 64.8054 55.6556 64.8054H138.103C146.077 64.8054 152.54 71.2693 152.54 79.243V291.708C152.54 299.682 146.077 306.146 138.103 306.146H55.6555C47.6819 306.146 41.218 299.682 41.218 291.708V79.2429Z" fill="url(#paint0_linear_265_36)"/>
<path d="M60.8121 309.749C60.8121 309.307 61.1709 308.948 61.6135 308.948V308.948C62.056 308.948 62.4148 309.307 62.4148 309.749V309.882C62.4148 310.325 62.056 310.683 61.6135 310.683V310.683C61.1709 310.683 60.8121 310.325 60.8121 309.882V309.749Z" fill="#9AA9B1" fill-opacity="0.5"/>
<path d="M36.9821 286.378C36.9821 285.988 37.2982 285.672 37.6881 285.672H37.9906C38.3805 285.672 38.6966 285.988 38.6966 286.378V286.378C38.6966 286.768 38.3805 287.084 37.9906 287.084H37.6881C37.2982 287.084 36.9821 286.768 36.9821 286.378V286.378Z" fill="#9AA9B1" fill-opacity="0.5"/>
<path d="M36.974 86.4845C36.974 85.9866 37.3776 85.583 37.8755 85.583V85.583C38.3734 85.583 38.777 85.9866 38.777 86.4845V86.723C38.777 87.2209 38.3734 87.6245 37.8755 87.6245V87.6245C37.3776 87.6245 36.974 87.2209 36.974 86.723V86.4845Z" fill="#E4E4E3" fill-opacity="0.65"/>
<path d="M154.671 286.368C154.671 285.974 154.991 285.654 155.385 285.654H155.759C156.154 285.654 156.474 285.974 156.474 286.368V286.368C156.474 286.763 156.154 287.083 155.759 287.083H155.385C154.991 287.083 154.671 286.763 154.671 286.368V286.368Z" fill="#9AA9B1" fill-opacity="0.5"/>
<path d="M154.671 86.5869C154.671 86.089 155.075 85.6853 155.572 85.6853V85.6853C156.07 85.6853 156.474 86.089 156.474 86.5869V86.7233C156.474 87.2212 156.07 87.6248 155.572 87.6248V87.6248C155.075 87.6248 154.671 87.2212 154.671 86.7233V86.5869Z" fill="#E4E4E3" fill-opacity="0.65"/>
<path d="M130.977 60.9728C130.977 60.5272 131.338 60.166 131.784 60.166H131.985C132.431 60.166 132.792 60.5272 132.792 60.9728V60.9728C132.792 61.4184 132.431 61.7797 131.985 61.7797H131.784C131.338 61.7797 130.977 61.4184 130.977 60.9728V60.9728Z" fill="#E4E4E3" fill-opacity="0.65"/>
<path d="M87.9127 63.3133C87.9127 62.9202 88.2313 62.6015 88.6244 62.6015H104.648C105.041 62.6015 105.36 62.9202 105.36 63.3133C105.36 63.7064 105.041 64.0251 104.648 64.0251H88.6244C88.2313 64.0251 87.9127 63.7064 87.9127 63.3133Z" fill="#141414"/>
<path d="M36.0223 153.158C36.0223 152.917 36.2173 152.722 36.4579 152.722H36.7888C37.0293 152.722 37.2244 152.917 37.2244 153.158V171.988C37.2244 172.228 37.0293 172.423 36.7888 172.423H36.4579C36.2173 172.423 36.0223 172.228 36.0223 171.988V153.158Z" fill="black"/>
<path d="M36.0223 129.033C36.0223 128.811 36.2017 128.632 36.423 128.632H36.8237C37.045 128.632 37.2244 128.811 37.2244 129.033V148.136C37.2244 148.358 37.045 148.537 36.8237 148.537H36.423C36.2017 148.537 36.0223 148.358 36.0223 148.136V138.585V129.033Z" fill="black"/>
<path d="M35.9221 110.455C35.9221 110.234 36.1015 110.054 36.3228 110.054H36.7235C36.9448 110.054 37.1242 110.234 37.1242 110.455V120.372C37.1242 120.593 36.9448 120.772 36.7235 120.772H36.3228C36.1015 120.772 35.9221 120.593 35.9221 120.372V110.455Z" fill="black"/>
<path d="M156.322 135.703C156.322 135.462 156.517 135.267 156.757 135.267H156.788C157.028 135.267 157.223 135.462 157.223 135.703V164.842C157.223 165.083 157.028 165.278 156.788 165.278H156.757C156.517 165.278 156.322 165.083 156.322 164.842V135.703Z" fill="#C8C9C4"/>
<path d="M81.8616 71.3686C81.8616 69.2157 83.6069 67.4704 85.7598 67.4704H107.513C109.666 67.4704 111.411 69.2157 111.411 71.3686V71.7863C111.411 73.9392 109.666 75.6845 107.513 75.6845H85.7598C83.6069 75.6845 81.8616 73.9392 81.8616 71.7862V71.3686Z" fill="#0A0A0A"/>
<path d="M111.405 71.5774C111.405 73.8457 109.567 75.6845 107.298 75.6845C105.03 75.6845 103.191 73.8457 103.191 71.5774C103.191 69.3092 105.03 67.4704 107.298 67.4704C109.567 67.4704 111.405 69.3092 111.405 71.5774Z" fill="#0A0A0A"/>
<path d="M109.509 71.6385C109.509 72.8788 108.522 73.8842 107.305 73.8842C106.088 73.8842 105.101 72.8788 105.101 71.6385C105.101 70.3982 106.088 69.3928 107.305 69.3928C108.522 69.3928 109.509 70.3982 109.509 71.6385Z" fill="url(#paint1_radial_265_36)"/>
<path d="M109.509 71.6385C109.509 72.8788 108.522 73.8842 107.305 73.8842C106.088 73.8842 105.101 72.8788 105.101 71.6385C105.101 70.3982 106.088 69.3928 107.305 69.3928C108.522 69.3928 109.509 70.3982 109.509 71.6385Z" fill="url(#paint2_angular_265_36)"/>
<path d="M109.509 71.6385C109.509 72.8788 108.522 73.8842 107.305 73.8842C106.088 73.8842 105.101 72.8788 105.101 71.6385C105.101 70.3982 106.088 69.3928 107.305 69.3928C108.522 69.3928 109.509 70.3982 109.509 71.6385Z" fill="url(#paint3_angular_265_36)"/>
<path d="M107.305 73.8842C108.522 73.8842 109.509 72.8788 109.509 71.6385C109.509 70.3982 108.522 69.3928 107.305 69.3928M107.305 73.8842C106.088 73.8842 105.101 72.8788 105.101 71.6385C105.101 70.3982 106.088 69.3928 107.305 69.3928M107.305 73.8842V69.3928M55.215 310.463H138.155C148.046 310.463 156.064 302.446 156.064 292.555V78.2949C156.064 68.4044 148.046 60.3865 138.155 60.3865H55.215C45.3245 60.3865 37.3067 68.4044 37.3067 78.2949V292.555C37.3067 302.446 45.3245 310.463 55.215 310.463ZM55.5853 310.684H137.785C148.059 310.684 156.388 302.355 156.388 292.081V78.7691C156.388 68.4949 148.059 60.166 137.785 60.166H55.5852C45.311 60.166 36.9822 68.4949 36.9822 78.7691V292.081C36.9822 302.355 45.311 310.684 55.5853 310.684ZM37.3067 79.3434C37.3067 68.8738 45.6356 60.3865 55.9098 60.3865H137.461C147.735 60.3865 156.064 68.8738 156.064 79.3434V291.506C156.064 301.976 147.735 310.463 137.461 310.463H55.9098C45.6356 310.463 37.3067 301.976 37.3067 291.506V79.3434ZM55.8372 306.146H137.921C145.995 306.146 152.54 299.6 152.54 291.526V79.4246C152.54 71.3506 145.995 64.8054 137.921 64.8054H55.8372C47.7632 64.8054 41.218 71.3506 41.218 79.4246V291.526C41.218 299.6 47.7632 306.146 55.8372 306.146ZM88.6244 64.0251H104.648C105.041 64.0251 105.36 63.7064 105.36 63.3133C105.36 62.9202 105.041 62.6015 104.648 62.6015H88.6244C88.2313 62.6015 87.9127 62.9202 87.9127 63.3133C87.9127 63.7064 88.2313 64.0251 88.6244 64.0251ZM36.4579 172.423H36.7888C37.0293 172.423 37.2244 172.228 37.2244 171.988V153.158C37.2244 152.917 37.0293 152.722 36.7888 152.722H36.4579C36.2173 152.722 36.0223 152.917 36.0223 153.158V171.988C36.0223 172.228 36.2173 172.423 36.4579 172.423ZM36.423 148.537H36.8237C37.045 148.537 37.2244 148.358 37.2244 148.136V129.033C37.2244 128.811 37.045 128.632 36.8237 128.632H36.423C36.2017 128.632 36.0223 128.811 36.0223 129.033V138.585V148.136C36.0223 148.358 36.2017 148.537 36.423 148.537ZM36.3228 120.772H36.7235C36.9448 120.772 37.1242 120.593 37.1242 120.372V110.455C37.1242 110.234 36.9448 110.054 36.7235 110.054H36.3228C36.1015 110.054 35.9221 110.234 35.9221 110.455V120.372C35.9221 120.593 36.1015 120.772 36.3228 120.772ZM156.757 165.278H156.788C157.028 165.278 157.223 165.083 157.223 164.842V135.703C157.223 135.462 157.028 135.267 156.788 135.267H156.757C156.517 135.267 156.322 135.462 156.322 135.703V164.842C156.322 165.083 156.517 165.278 156.757 165.278ZM85.7598 75.6845H107.513C109.666 75.6845 111.411 73.9392 111.411 71.7863V71.3686C111.411 69.2157 109.666 67.4704 107.513 67.4704H85.7598C83.6069 67.4704 81.8616 69.2157 81.8616 71.3686V71.7862C81.8616 73.9392 83.6069 75.6845 85.7598 75.6845ZM111.405 71.5774C111.405 73.8457 109.567 75.6845 107.298 75.6845C105.03 75.6845 103.191 73.8457 103.191 71.5774C103.191 69.3092 105.03 67.4704 107.298 67.4704C109.567 67.4704 111.405 69.3092 111.405 71.5774ZM131.784 61.7797H131.985C132.431 61.7797 132.792 61.4184 132.792 60.9728V60.9728C132.792 60.5272 132.431 60.166 131.985 60.166H131.784C131.338 60.166 130.977 60.5272 130.977 60.9728V60.9728C130.977 61.4184 131.338 61.7797 131.784 61.7797ZM155.572 87.6248V87.6248C156.07 87.6248 156.474 87.2212 156.474 86.7233V86.5869C156.474 86.089 156.07 85.6853 155.572 85.6853V85.6853C155.075 85.6853 154.671 86.089 154.671 86.5869V86.7233C154.671 87.2212 155.075 87.6248 155.572 87.6248ZM155.385 287.083H155.759C156.154 287.083 156.474 286.763 156.474 286.368V286.368C156.474 285.974 156.154 285.654 155.759 285.654H155.385C154.991 285.654 154.671 285.974 154.671 286.368V286.368C154.671 286.763 154.991 287.083 155.385 287.083ZM37.8755 87.6245V87.6245C38.3734 87.6245 38.777 87.2209 38.777 86.723V86.4845C38.777 85.9866 38.3734 85.583 37.8755 85.583V85.583C37.3776 85.583 36.974 85.9866 36.974 86.4845V86.723C36.974 87.2209 37.3776 87.6245 37.8755 87.6245ZM37.6881 287.084H37.9906C38.3805 287.084 38.6966 286.768 38.6966 286.378V286.378C38.6966 285.988 38.3805 285.672 37.9906 285.672H37.6881C37.2982 285.672 36.9821 285.988 36.9821 286.378V286.378C36.9821 286.768 37.2982 287.084 37.6881 287.084ZM61.6135 310.683V310.683C62.056 310.683 62.4148 310.325 62.4148 309.882V309.749C62.4148 309.307 62.056 308.948 61.6135 308.948V308.948C61.1709 308.948 60.8121 309.307 60.8121 309.749V309.882C60.8121 310.325 61.1709 310.683 61.6135 310.683ZM55.6555 306.146H138.103C146.077 306.146 152.54 299.682 152.54 291.708V79.243C152.54 71.2693 146.077 64.8054 138.103 64.8054H55.6556C47.6819 64.8054 41.218 71.2693 41.218 79.2429V291.708C41.218 299.682 47.6819 306.146 55.6555 306.146Z" stroke="black" stroke-width="0.367296"/>
</g>
<g filter="url(#filter0_d_265_36)">
<rect x="50.0868" y="108.861" width="92.9545" height="41.6082" rx="4.4264" fill="white"/>
</g>
<g filter="url(#filter1_d_265_36)">
<rect x="40.3486" y="104.432" width="108.89" height="41.6082" rx="4.4264" fill="white"/>
</g>
<g filter="url(#filter2_d_265_36)">
<rect x="25.2989" y="100.006" width="140.76" height="41.6082" rx="4.4264" fill="white"/>
</g>
<circle cx="53.6278" cy="121.255" r="12.3939" fill="#CFE4E7"/>
<rect x="73.9893" y="112.402" width="76.1341" height="5.31168" rx="2.65584" fill="#CFE4E7"/>
<rect x="73.9893" y="120.369" width="76.1341" height="3.54112" rx="1.77056" fill="#CFE4E7"/>
<rect x="73.9893" y="126.566" width="12.3939" height="3.54112" rx="1.77056" fill="#CFE4E7"/>
<path opacity="0.4" d="M57.2132 123.773C57.079 124.133 56.796 124.406 56.4268 124.531C55.9089 124.704 55.3766 124.833 54.8396 124.924C54.7868 124.934 54.7341 124.943 54.6813 124.948C54.595 124.963 54.5087 124.972 54.4224 124.982C54.3169 124.996 54.2066 125.006 54.0963 125.015C53.7942 125.039 53.4969 125.054 53.1948 125.054C52.8879 125.054 52.581 125.039 52.2789 125.011C52.1494 125.001 52.0248 124.987 51.9001 124.967C51.8281 124.958 51.7562 124.948 51.6891 124.939C51.6363 124.929 51.5836 124.924 51.5308 124.915C50.9986 124.828 50.4711 124.699 49.958 124.526C49.5744 124.397 49.2819 124.123 49.1524 123.773C49.0229 123.428 49.0709 123.025 49.2771 122.68L49.8189 121.779C49.934 121.582 50.0395 121.203 50.0395 120.973V120.081C50.0395 118.34 51.4541 116.926 53.1948 116.926C54.9307 116.926 56.3453 118.34 56.3453 120.081V120.973C56.3453 121.203 56.4508 121.582 56.5707 121.779L57.1125 122.68C57.3091 123.016 57.3475 123.409 57.2132 123.773Z" fill="#171717"/>
<path d="M53.1852 121.102C52.9838 121.102 52.8208 120.939 52.8208 120.738V119.251C52.8208 119.05 52.9838 118.887 53.1852 118.887C53.3866 118.887 53.5497 119.05 53.5497 119.251V120.738C53.5449 120.939 53.3818 121.102 53.1852 121.102Z" fill="#171717"/>
<path d="M54.5422 125.538C54.3408 126.094 53.8085 126.492 53.1852 126.492C52.8063 126.492 52.4323 126.339 52.1686 126.065C52.0151 125.922 51.9 125.73 51.8329 125.533C51.8952 125.543 51.9576 125.548 52.0247 125.557C52.135 125.572 52.2501 125.586 52.3652 125.596C52.6385 125.62 52.9166 125.634 53.1947 125.634C53.4681 125.634 53.7414 125.62 54.0099 125.596C54.1106 125.586 54.2113 125.581 54.3072 125.567C54.384 125.557 54.4607 125.548 54.5422 125.538Z" fill="#171717"/>
</g>
<defs>
<filter id="filter0_d_265_36" x="46.5457" y="108.861" width="100.037" height="48.6897" filterUnits="userSpaceOnUse" color-interpolation-filters="sRGB">
<feFlood flood-opacity="0" result="BackgroundImageFix"/>
<feColorMatrix in="SourceAlpha" type="matrix" values="0 0 0 0 0 0 0 0 0 0 0 0 0 0 0 0 0 0 127 0" result="hardAlpha"/>
<feOffset dy="3.54112"/>
<feGaussianBlur stdDeviation="1.77056"/>
<feComposite in2="hardAlpha" operator="out"/>
<feColorMatrix type="matrix" values="0 0 0 0 0 0 0 0 0 0 0 0 0 0 0 0 0 0 0.07 0"/>
<feBlend mode="normal" in2="BackgroundImageFix" result="effect1_dropShadow_265_36"/>
<feBlend mode="normal" in="SourceGraphic" in2="effect1_dropShadow_265_36" result="shape"/>
</filter>
<filter id="filter1_d_265_36" x="36.8075" y="104.432" width="115.972" height="48.6897" filterUnits="userSpaceOnUse" color-interpolation-filters="sRGB">
<feFlood flood-opacity="0" result="BackgroundImageFix"/>
<feColorMatrix in="SourceAlpha" type="matrix" values="0 0 0 0 0 0 0 0 0 0 0 0 0 0 0 0 0 0 127 0" result="hardAlpha"/>
<feOffset dy="3.54112"/>
<feGaussianBlur stdDeviation="1.77056"/>
<feComposite in2="hardAlpha" operator="out"/>
<feColorMatrix type="matrix" values="0 0 0 0 0 0 0 0 0 0 0 0 0 0 0 0 0 0 0.07 0"/>
<feBlend mode="normal" in2="BackgroundImageFix" result="effect1_dropShadow_265_36"/>
<feBlend mode="normal" in="SourceGraphic" in2="effect1_dropShadow_265_36" result="shape"/>
</filter>
<filter id="filter2_d_265_36" x="21.7578" y="100.006" width="147.842" height="48.6897" filterUnits="userSpaceOnUse" color-interpolation-filters="sRGB">
<feFlood flood-opacity="0" result="BackgroundImageFix"/>
<feColorMatrix in="SourceAlpha" type="matrix" values="0 0 0 0 0 0 0 0 0 0 0 0 0 0 0 0 0 0 127 0" result="hardAlpha"/>
<feOffset dy="3.54112"/>
<feGaussianBlur stdDeviation="1.77056"/>
<feComposite in2="hardAlpha" operator="out"/>
<feColorMatrix type="matrix" values="0 0 0 0 0 0 0 0 0 0 0 0 0 0 0 0 0 0 0.25 0"/>
<feBlend mode="normal" in2="BackgroundImageFix" result="effect1_dropShadow_265_36"/>
<feBlend mode="normal" in="SourceGraphic" in2="effect1_dropShadow_265_36" result="shape"/>
</filter>
<linearGradient id="paint0_linear_265_36" x1="96.5727" y1="60.166" x2="97.0065" y2="213.32" gradientUnits="userSpaceOnUse">
<stop offset="0.502736" stop-color="#08485B"/>
<stop offset="1" stop-color="#C8DFE4"/>
</linearGradient>
<radialGradient id="paint1_radial_265_36" cx="0" cy="0" r="1" gradientUnits="userSpaceOnUse" gradientTransform="translate(96.5727 185.425) rotate(90) scale(125.259 60.6506)">
<stop offset="0.213542"/>
<stop offset="0.270833" stop-color="#081A32"/>
<stop offset="0.395833" stop-color="#1F3A58"/>
<stop offset="0.515625" stop-color="#375F90"/>
<stop offset="0.713542" stop-color="#274871"/>
<stop offset="0.916667" stop-color="#0D1528"/>
</radialGradient>
<radialGradient id="paint2_angular_265_36" cx="0" cy="0" r="1" gradientUnits="userSpaceOnUse" gradientTransform="translate(96.5727 185.425) rotate(90) scale(125.259 60.6506)">
<stop offset="0.411458" stop-opacity="0"/>
<stop offset="0.510417"/>
<stop offset="0.817708" stop-opacity="0"/>
</radialGradient>
<radialGradient id="paint3_angular_265_36" cx="0" cy="0" r="1" gradientUnits="userSpaceOnUse" gradientTransform="translate(96.5727 185.425) rotate(90) scale(125.259 60.6506)">
<stop/>
<stop offset="0.166667" stop-opacity="0"/>
<stop offset="0.885417" stop-opacity="0"/>
</radialGradient>
<clipPath id="clip0_265_36">
<rect x="0.510925" y="0.857422" width="190.335" height="190.335" rx="95.1677" fill="white"/>
</clipPath>
</defs>
</svg>
